<?xml version="1.0" encoding="UTF-8"?><svg id="a" xmlns="http://www.w3.org/2000/svg" viewBox="0 0 731.83 105.57"><path d="m51.32,77.07v8.33H9.95V16.65h9.62v60.42h31.75Z" style="fill:none; stroke:#1d1d1b; stroke-miterlimit:10; stroke-width:2.83px;"/><path d="m101.92,83.91c-2.12.53-4.91,1.09-8.38,1.69-3.47.6-7.49.89-12.05.89-3.97,0-7.31-.58-10.02-1.74-2.71-1.16-4.9-2.79-6.55-4.91-1.65-2.12-2.84-4.61-3.57-7.49-.73-2.88-1.09-6.07-1.09-9.57v-28.97h9.23v26.99c0,6.28.99,10.78,2.98,13.49,1.98,2.71,5.32,4.07,10.02,4.07.99,0,2.02-.03,3.08-.1,1.06-.07,2.05-.15,2.98-.25.93-.1,1.77-.2,2.53-.3.76-.1,1.31-.21,1.64-.35v-43.55h9.23v50.1Z" style="fill:none; stroke:#1d1d1b; stroke-miterlimit:10; stroke-width:2.83px;"/><path d="m122.36,24.48c-1.65,0-3.06-.55-4.22-1.64-1.16-1.09-1.74-2.56-1.74-4.42s.58-3.32,1.74-4.41c1.16-1.09,2.56-1.64,4.22-1.64s3.06.55,4.22,1.64c1.16,1.09,1.74,2.56,1.74,4.41s-.58,3.32-1.74,4.42c-1.16,1.09-2.56,1.64-4.22,1.64Zm4.66,60.92h-9.23v-51.59h9.23v51.59Z" style="fill:none; stroke:#1d1d1b; stroke-miterlimit:10; stroke-width:2.83px;"/><path d="m154.9,78.75c3.77,0,6.56-.5,8.38-1.49,1.82-.99,2.73-2.58,2.73-4.76s-.89-4.03-2.68-5.36c-1.79-1.32-4.73-2.81-8.83-4.46-1.98-.79-3.89-1.6-5.7-2.43-1.82-.83-3.39-1.8-4.71-2.93-1.32-1.12-2.38-2.48-3.17-4.07-.79-1.59-1.19-3.54-1.19-5.85,0-4.56,1.69-8.19,5.06-10.86,3.37-2.68,7.97-4.02,13.79-4.02,1.45,0,2.91.08,4.37.25,1.45.17,2.81.36,4.07.6,1.26.23,2.36.48,3.32.74.96.27,1.7.5,2.23.69l-1.69,7.94c-.99-.53-2.55-1.07-4.66-1.64-2.12-.56-4.66-.84-7.64-.84-2.58,0-4.83.51-6.75,1.54-1.92,1.03-2.88,2.63-2.88,4.81,0,1.13.21,2.12.65,2.98.43.86,1.09,1.64,1.98,2.33.89.69,2,1.34,3.32,1.93,1.32.6,2.91,1.22,4.76,1.89,2.45.93,4.63,1.84,6.55,2.73,1.92.89,3.55,1.93,4.91,3.12,1.35,1.19,2.4,2.63,3.12,4.32.73,1.69,1.09,3.75,1.09,6.2,0,4.76-1.77,8.37-5.31,10.81-3.54,2.45-8.58,3.67-15.13,3.67-4.56,0-8.14-.38-10.72-1.14-2.58-.76-4.33-1.34-5.26-1.74l1.69-7.94c1.06.4,2.74.99,5.06,1.79,2.31.79,5.39,1.19,9.23,1.19Z" style="fill:none; stroke:#1d1d1b; stroke-miterlimit:10; stroke-width:2.83px;"/><path d="m244.29,56.63c1.06,1.32,2.4,3.06,4.02,5.21,1.62,2.15,3.29,4.53,5.01,7.14,1.72,2.61,3.42,5.34,5.11,8.19,1.69,2.84,3.13,5.59,4.32,8.23h-10.52c-1.32-2.51-2.76-5.06-4.32-7.64-1.55-2.58-3.12-5.04-4.71-7.39-1.59-2.35-3.16-4.55-4.71-6.6-1.55-2.05-2.96-3.83-4.22-5.36-.86.07-1.74.1-2.63.1h-11.36v26.89h-9.62V17.64c2.71-.66,5.74-1.11,9.08-1.34,3.34-.23,6.4-.35,9.18-.35,9.66,0,17.02,1.82,22.08,5.46,5.06,3.64,7.59,9.06,7.59,16.27,0,4.56-1.21,8.47-3.62,11.71-2.42,3.24-5.97,5.66-10.67,7.24Zm-14.58-32.24c-4.1,0-7.24.1-9.42.3v25.89h6.85c3.31,0,6.28-.16,8.93-.5,2.64-.33,4.88-.96,6.7-1.88,1.82-.93,3.22-2.23,4.22-3.92s1.49-3.92,1.49-6.7c0-2.58-.5-4.73-1.49-6.45-.99-1.72-2.33-3.08-4.02-4.07s-3.67-1.69-5.95-2.08c-2.28-.4-4.71-.6-7.29-.6Z" style="fill:none; stroke:#1d1d1b; stroke-miterlimit:10; stroke-width:2.83px;"/><path d="m289.13,32.52c3.7,0,6.83.48,9.38,1.44,2.54.96,4.6,2.32,6.15,4.07,1.55,1.75,2.66,3.84,3.32,6.25.66,2.42.99,5.08.99,7.99v32.24c-.79.13-1.9.31-3.32.55-1.42.23-3.03.45-4.81.65-1.79.2-3.72.38-5.8.55-2.08.16-4.15.25-6.2.25-2.91,0-5.59-.3-8.04-.89-2.45-.6-4.56-1.54-6.35-2.83-1.79-1.29-3.17-2.99-4.17-5.11-.99-2.12-1.49-4.66-1.49-7.64s.58-5.29,1.74-7.34c1.16-2.05,2.73-3.7,4.71-4.96,1.98-1.26,4.3-2.18,6.95-2.78,2.64-.6,5.42-.89,8.33-.89.92,0,1.88.05,2.88.15.99.1,1.93.23,2.83.4.89.17,1.67.31,2.33.45.66.13,1.12.23,1.39.3v-2.58c0-1.52-.17-3.03-.5-4.51-.33-1.49-.93-2.81-1.79-3.97-.86-1.16-2.03-2.08-3.52-2.78-1.49-.69-3.42-1.04-5.8-1.04-3.04,0-5.7.22-7.99.65-2.28.43-3.99.88-5.11,1.34l-1.09-7.64c1.19-.53,3.17-1.04,5.95-1.54,2.78-.5,5.79-.74,9.03-.74Zm.79,46.23c2.18,0,4.12-.05,5.8-.15,1.69-.1,3.09-.28,4.22-.55v-15.38c-.66-.33-1.74-.61-3.22-.84-1.49-.23-3.29-.35-5.41-.35-1.39,0-2.86.1-4.42.3-1.55.2-2.98.61-4.27,1.24-1.29.63-2.37,1.49-3.22,2.58-.86,1.09-1.29,2.53-1.29,4.32,0,3.31,1.06,5.61,3.17,6.9,2.12,1.29,4.99,1.93,8.63,1.93Z" style="fill:none; stroke:#1d1d1b; stroke-miterlimit:10; stroke-width:2.83px;"/><path d="m324.25,35.3c2.12-.53,4.93-1.09,8.43-1.69,3.5-.6,7.54-.89,12.1-.89,4.1,0,7.51.58,10.22,1.74,2.71,1.16,4.88,2.78,6.5,4.86,1.62,2.08,2.76,4.58,3.42,7.49.66,2.91.99,6.12.99,9.62v28.97h-9.23v-26.99c0-3.17-.22-5.89-.65-8.14-.43-2.25-1.14-4.07-2.13-5.46-.99-1.39-2.32-2.4-3.97-3.03-1.65-.63-3.71-.94-6.15-.94-.99,0-2.02.03-3.08.1-1.06.07-2.07.15-3.03.25-.96.1-1.82.22-2.58.35-.76.13-1.31.23-1.64.3v43.55h-9.23v-50.1Z" style="fill:none; stroke:#1d1d1b; stroke-miterlimit:10; stroke-width:2.83px;"/><path d="m413.54,80.24c-.79.53-2.33,1.21-4.61,2.03-2.28.83-4.95,1.24-7.99,1.24s-6.04-.5-8.78-1.49c-2.75-.99-5.14-2.53-7.19-4.61-2.05-2.08-3.67-4.68-4.86-7.79-1.19-3.11-1.79-6.81-1.79-11.11,0-3.77.56-7.23,1.69-10.37,1.12-3.14,2.76-5.85,4.91-8.14,2.15-2.28,4.78-4.07,7.89-5.36,3.11-1.29,6.61-1.94,10.52-1.94,4.3,0,8.05.31,11.26.94,3.21.63,5.9,1.21,8.09,1.74v46.03c0,7.94-2.05,13.69-6.15,17.26-4.1,3.57-10.32,5.36-18.65,5.36-3.24,0-6.3-.27-9.18-.79-2.88-.53-5.38-1.16-7.49-1.89l1.69-8.04c1.85.73,4.12,1.37,6.8,1.93,2.68.56,5.47.84,8.38.84,5.49,0,9.44-1.09,11.86-3.27,2.41-2.18,3.62-5.66,3.62-10.42v-2.18Zm-.1-38.3c-.93-.26-2.17-.51-3.72-.74-1.55-.23-3.66-.35-6.3-.35-4.96,0-8.78,1.62-11.46,4.86-2.68,3.24-4.02,7.54-4.02,12.9,0,2.98.38,5.52,1.14,7.64.76,2.12,1.79,3.87,3.08,5.26,1.29,1.39,2.78,2.42,4.46,3.08,1.69.66,3.42.99,5.21.99,2.45,0,4.7-.35,6.75-1.04,2.05-.69,3.67-1.5,4.86-2.43v-30.16Z" style="fill:none; stroke:#1d1d1b; stroke-miterlimit:10; stroke-width:2.83px;"/><path d="m435.66,59.7c0-4.56.66-8.55,1.98-11.96,1.32-3.41,3.08-6.23,5.26-8.48,2.18-2.25,4.7-3.93,7.54-5.06,2.84-1.12,5.75-1.69,8.73-1.69,6.95,0,12.27,2.17,15.97,6.5,3.7,4.33,5.55,10.93,5.55,19.79v1.54c0,.63-.03,1.21-.1,1.74h-35.32c.4,5.36,1.95,9.43,4.66,12.2,2.71,2.78,6.94,4.17,12.7,4.17,3.24,0,5.97-.28,8.19-.84,2.21-.56,3.88-1.11,5.01-1.64l1.29,7.74c-1.12.6-3.09,1.22-5.9,1.88-2.81.66-6,.99-9.57.99-4.5,0-8.38-.68-11.66-2.03-3.27-1.35-5.97-3.22-8.09-5.61-2.12-2.38-3.69-5.21-4.71-8.48-1.03-3.27-1.54-6.86-1.54-10.76Zm35.42-5.06c.06-4.17-.98-7.59-3.12-10.27-2.15-2.68-5.11-4.02-8.88-4.02-2.12,0-3.98.41-5.61,1.24-1.62.83-2.99,1.9-4.12,3.22-1.12,1.32-2,2.84-2.63,4.56-.63,1.72-1.04,3.47-1.24,5.26h25.6Z" style="fill:none; stroke:#1d1d1b; stroke-miterlimit:10; stroke-width:2.83px;"/><path d="m509.48,86.39c-5.69-.13-9.72-1.35-12.1-3.67-2.38-2.31-3.57-5.92-3.57-10.81V10l9.23-1.59v62.01c0,1.52.13,2.78.4,3.77.26.99.7,1.79,1.29,2.38.59.6,1.39,1.04,2.38,1.34.99.3,2.21.55,3.67.74l-1.29,7.74Z" style="fill:none; stroke:#1d1d1b; stroke-miterlimit:10; stroke-width:2.83px;"/><path d="m601.05,50.97c0,5.95-.93,11.13-2.78,15.53-1.85,4.4-4.46,8.04-7.84,10.91-3.37,2.88-7.41,5.03-12.1,6.45-4.7,1.42-9.86,2.13-15.48,2.13-2.78,0-5.84-.12-9.18-.35-3.34-.23-6.37-.68-9.08-1.34V17.64c2.71-.66,5.74-1.11,9.08-1.34,3.34-.23,6.4-.35,9.18-.35,5.62,0,10.78.71,15.48,2.13,4.7,1.42,8.73,3.57,12.1,6.45,3.37,2.88,5.98,6.52,7.84,10.91,1.85,4.4,2.78,9.57,2.78,15.53Zm-37.4,26.59c9.13,0,15.94-2.33,20.44-6.99,4.5-4.66,6.75-11.19,6.75-19.59s-2.25-14.93-6.75-19.59c-4.5-4.66-11.31-6.99-20.44-6.99-2.71,0-4.81.03-6.3.1-1.49.07-2.53.13-3.12.2v52.58c.6.07,1.64.13,3.12.2,1.49.07,3.59.1,6.3.1Z" style="fill:none; stroke:#1d1d1b; stroke-miterlimit:10; stroke-width:2.83px;"/><path d="m619.3,24.48c-1.65,0-3.06-.55-4.22-1.64-1.16-1.09-1.74-2.56-1.74-4.42s.58-3.32,1.74-4.41c1.16-1.09,2.56-1.64,4.22-1.64s3.06.55,4.22,1.64c1.16,1.09,1.73,2.56,1.73,4.41s-.58,3.32-1.73,4.42c-1.16,1.09-2.56,1.64-4.22,1.64Zm4.66,60.92h-9.23v-51.59h9.23v51.59Z" style="fill:none; stroke:#1d1d1b; stroke-miterlimit:10; stroke-width:2.83px;"/><path d="m656.51,32.52c3.71,0,6.83.48,9.38,1.44,2.54.96,4.6,2.32,6.15,4.07,1.55,1.75,2.66,3.84,3.32,6.25.66,2.42.99,5.08.99,7.99v32.24c-.79.13-1.9.31-3.32.55-1.42.23-3.03.45-4.81.65-1.79.2-3.72.38-5.8.55-2.08.16-4.15.25-6.2.25-2.91,0-5.59-.3-8.04-.89s-4.56-1.54-6.35-2.83c-1.79-1.29-3.17-2.99-4.17-5.11-.99-2.12-1.49-4.66-1.49-7.64s.58-5.29,1.74-7.34c1.16-2.05,2.73-3.7,4.71-4.96,1.98-1.26,4.3-2.18,6.95-2.78,2.64-.6,5.42-.89,8.33-.89.92,0,1.88.05,2.88.15.99.1,1.93.23,2.83.4.89.17,1.67.31,2.33.45.66.13,1.12.23,1.39.3v-2.58c0-1.52-.17-3.03-.5-4.51-.33-1.49-.93-2.81-1.79-3.97-.86-1.16-2.03-2.08-3.52-2.78-1.49-.69-3.42-1.04-5.8-1.04-3.04,0-5.71.22-7.99.65-2.28.43-3.99.88-5.11,1.34l-1.09-7.64c1.19-.53,3.18-1.04,5.95-1.54s5.79-.74,9.03-.74Zm.79,46.23c2.18,0,4.12-.05,5.8-.15,1.69-.1,3.09-.28,4.22-.55v-15.38c-.66-.33-1.74-.61-3.22-.84-1.49-.23-3.29-.35-5.41-.35-1.39,0-2.86.1-4.42.3-1.55.2-2.97.61-4.27,1.24-1.29.63-2.37,1.49-3.22,2.58s-1.29,2.53-1.29,4.32c0,3.31,1.06,5.61,3.17,6.9,2.12,1.29,4.99,1.93,8.63,1.93Z" style="fill:none; stroke:#1d1d1b; stroke-miterlimit:10; stroke-width:2.83px;"/><path d="m725.85,40.75c-1.39,1.52-3.22,3.67-5.51,6.45-2.28,2.78-4.73,5.85-7.34,9.23-2.61,3.37-5.22,6.91-7.84,10.62-2.61,3.71-4.91,7.24-6.89,10.62h28.38v7.74h-39.39v-6.15c1.59-2.91,3.54-6.12,5.85-9.62,2.31-3.5,4.75-6.99,7.29-10.47,2.54-3.47,5.03-6.75,7.44-9.82,2.41-3.08,4.51-5.67,6.3-7.79h-25.5v-7.74h37.2v6.94Z" style="fill:none; stroke:#1d1d1b; stroke-miterlimit:10; stroke-width:2.83px;"/></svg>